# xmcd CD database file
# Generated: Wed Apr 7 21:48:25 2004 by KSCD
# 
# Track frame offsets:
#       150
#       23600
#       50232
#       73046
#       89034
#       121670
#       147596
#       166604
#       191107
#       220654
#       235184
#       251316
#       273253
#       300996
#       318793
#
# Disc length: 4424 seconds
#
# Revision: 3
# Processed by: cddbd v1.5PL3 Copyright (c) Steve Scherf et al.
# Submitted via: Kscd 1.3.3
#
DISCID=ca11460f
DTITLE=Skip Towne and The Greyhounds - Road Works Live
DYEAR=1900
DGENRE=
TTITLE0=Mystery Train
TTITLE1=Let The Good Times Roll
TTITLE2=She Caught The Katy
TTITLE3=I Get Evil
TTITLE4=Life Is Hard
TTITLE5=Broke And Hungry
TTITLE6=T-Bone Shuffle
TTITLE7=Sick And Tired
TTITLE8=Georgia
TTITLE9=Big Chief
TTITLE10=Mustang Sally
TTITLE11=You Don't Miss Your Water
TTITLE12=Back Door Man
TTITLE13=Hard Luck Case
TTITLE14=Mystery Train Reprise
EXTD=
EXTT0=
EXTT1=
EXTT2=
EXTT3=
EXTT4=
EXTT5=
EXTT6=
EXTT7=
EXTT8=
EXTT9=
EXTT10=
EXTT11=
EXTT12=
EXTT13=
EXTT14=
PLAYORDER=
